<svg xmlns="http://www.w3.org/2000/svg" version="1.1" xmlns:xlink="http://www.w3.org/1999/xlink" xmlns:svgjs="http://svgjs.dev/svgjs" width="1000" height="252" viewBox="0 0 1000 252"><g transform="matrix(1,0,0,1,-0.6060606060606233,0.48027860852062076)"><svg viewBox="0 0 396 100" data-background-color="#b10702" preserveAspectRatio="xMidYMid meet" height="252" width="1000" xmlns="http://www.w3.org/2000/svg" xmlns:xlink="http://www.w3.org/1999/xlink"><g id="tight-bounds" transform="matrix(1,0,0,1,0.2400000000000091,-0.19058674941294385)"><svg viewBox="0 0 395.52 100.3811734988259" height="100.3811734988259" width="395.52"><g><svg viewBox="0 0 546.8128589448847 138.77861161290323" height="100.3811734988259" width="395.52"><g transform="matrix(1,0,0,1,151.2928589448848,42.88460534562212)"><svg viewBox="0 0 395.52 53.009400921658994" height="53.009400921658994" width="395.52"><g id="textblocktransform"><svg viewBox="0 0 395.52 53.009400921658994" height="53.009400921658994" width="395.52" id="textblock"><g><svg viewBox="0 0 395.52 53.009400921658994" height="53.009400921658994" width="395.52"><g transform="matrix(1,0,0,1,0,0)"><svg width="395.52" viewBox="3.75 -34.29999923706055 260.3800048828125 34.89999771118164" height="53.009400921658994" data-palette-color="#ffffff"><path d="M3.75 0L3.75-34.3 30.35-34.3 30.35-29.55 9.3-29.55 9.3-19.9 28.15-19.9 28.15-15.15 9.3-15.15 9.3-4.75 30.65-4.75 30.65 0 3.75 0ZM46.6 0L33.95-34.3 39.95-34.3 48.2-11.25 48.75-9.65 50.05-5.85 50.3-5.85 51.4-9Q51.6-9.7 51.8-10.28 52-10.85 52.15-11.3L52.15-11.3 60.35-34.3 66.05-34.3 53.45 0 46.6 0ZM70.45 0L70.45-34.3 97.05-34.3 97.05-29.55 76-29.55 76-19.9 94.85-19.9 94.85-15.15 76-15.15 76-4.75 97.35-4.75 97.35 0 70.45 0ZM103.79 0L103.79-34.3 108.89-34.3 125.49-12Q126.04-11.25 126.94-9.85L126.94-9.85 127.19-9.95 127.14-12.45 127.14-34.3 132.39-34.3 132.39 0 127.39 0 110.74-22.55Q110.34-23.05 109.89-23.75 109.44-24.45 109.24-24.75L109.24-24.75 108.99-24.7 109.04-22.15 109.04 0 103.79 0ZM148.64 0L148.64-29.5 137.24-29.5 137.24-34.3 165.59-34.3 165.59-29.5 154.19-29.5 154.19 0 148.64 0ZM184.69 0.6Q177.89 0.6 174.16-2.7 170.44-6 170.44-12.7L170.44-12.7 170.44-34.3 175.99-34.3 175.99-12.6Q175.99-8.45 178.26-6.28 180.54-4.1 184.69-4.1L184.69-4.1Q188.89-4.1 191.19-6.28 193.49-8.45 193.49-12.6L193.49-12.6 193.49-34.3 199.04-34.3 199.04-12.7Q199.04-6 195.31-2.7 191.59 0.6 184.69 0.6L184.69 0.6ZM203.09 0L216.44-34.3 223.44-34.3 236.74 0 230.84 0 227.69-8.35 211.89-8.35 208.79 0 203.09 0ZM213.64-13.1L225.89-13.1 222.14-23.15 219.89-29.55 219.64-29.55 219.19-28.25Q218.34-25.65 217.44-23.25L217.44-23.25 213.64-13.1ZM240.73 0L240.73-34.3 246.28-34.3 246.28-4.8 264.13-4.8 264.13 0 240.73 0Z" opacity="1" transform="matrix(1,0,0,1,0,0)" fill="#ffffff" class="wordmark-text-0" data-fill-palette-color="primary" id="text-0"></path></svg></g></svg></g></svg></g></svg></g><g><svg viewBox="0 0 138.77861161290323 138.77861161290323" height="138.77861161290323" width="138.77861161290323"><g><svg xmlns="http://www.w3.org/2000/svg" xmlns:xlink="http://www.w3.org/1999/xlink" version="1.0" x="0" y="0" viewBox="1 1 48 48" enable-background="new 0 0 50 50" xml:space="preserve" height="138.77861161290323" width="138.77861161290323" class="icon-icon-0" data-fill-palette-color="accent" id="icon-0"><g fill="#ffffff" data-fill-palette-color="accent"><g fill="#ffffff" data-fill-palette-color="accent"><rect x="1" y="1" fill="#ffffff" width="23" height="5" data-fill-palette-color="accent"></rect><rect x="1" y="10" fill="#ffffff" width="23" height="5" data-fill-palette-color="accent"></rect><rect x="1" y="19" fill="#ffffff" width="23" height="5" data-fill-palette-color="accent"></rect></g><g fill="#ffffff" data-fill-palette-color="accent"><rect x="26" y="26" fill="#ffffff" width="23" height="5" data-fill-palette-color="accent"></rect><rect x="26" y="35" fill="#ffffff" width="23" height="5" data-fill-palette-color="accent"></rect><rect x="26" y="44" fill="#ffffff" width="23" height="5" data-fill-palette-color="accent"></rect></g><g fill="#ffffff" data-fill-palette-color="accent"><rect x="19" y="26" fill="#ffffff" width="5" height="23" data-fill-palette-color="accent"></rect><rect x="10" y="26" fill="#ffffff" width="5" height="23" data-fill-palette-color="accent"></rect><rect x="1" y="26" fill="#ffffff" width="5" height="23" data-fill-palette-color="accent"></rect></g><g fill="#ffffff" data-fill-palette-color="accent"><rect x="44" y="1" fill="#ffffff" width="5" height="23" data-fill-palette-color="accent"></rect><rect x="35" y="1" fill="#ffffff" width="5" height="23" data-fill-palette-color="accent"></rect><rect x="26" y="1" fill="#ffffff" width="5" height="23" data-fill-palette-color="accent"></rect></g></g></svg></g></svg></g></svg></g><defs></defs></svg><rect width="395.52" height="100.3811734988259" fill="none" stroke="none" visibility="hidden"></rect></g></svg></g></svg>